<svg xmlns="http://www.w3.org/2000/svg" width="1024" height="1024" viewBox="0 0 1024 1024">
  <defs>
    <radialGradient id="bg" cx="50%" cy="40%" r="70%">
      <stop offset="0%" stop-color="#2d3748"/>
      <stop offset="100%" stop-color="#1a202c"/>
    </radialGradient>
    <radialGradient id="skin" cx="45%" cy="35%" r="65%">
      <stop offset="0%" stop-color="#d4a578"/>
      <stop offset="60%" stop-color="#c4956b"/>
      <stop offset="100%" stop-color="#a67c52"/>
    </radialGradient>
    <linearGradient id="hair" x1="0%" y1="0%" x2="0%" y2="100%">
      <stop offset="0%" stop-color="#3a2814"/>
      <stop offset="100%" stop-color="#2a1d0e"/>
    </linearGradient>
    <linearGradient id="shirt" x1="0%" y1="0%" x2="0%" y2="100%">
      <stop offset="0%" stop-color="#4a5568"/>
      <stop offset="100%" stop-color="#2d3748"/>
    </linearGradient>
    <filter id="soft" x="-20%" y="-20%" width="140%" height="140%">
      <feGaussianBlur in="SourceAlpha" stdDeviation="4"/>
      <feOffset dx="0" dy="3" result="offsetblur"/>
      <feFlood flood-color="rgba(0,0,0,0.3)"/>
      <feComposite in2="offsetblur" operator="in"/>
      <feMerge>
        <feMergeNode/>
        <feMergeNode in="SourceGraphic"/>
      </feMerge>
    </filter>
    <filter id="texture">
      <feTurbulence type="fractalNoise" baseFrequency="0.04" numOctaves="3" seed="5"/>
      <feColorMatrix values="0 0 0 0 0  0 0 0 0 0  0 0 0 0 0  0 0 0 0.08 0"/>
      <feComposite in2="SourceGraphic" operator="in"/>
    </filter>
  </defs>
  <rect width="1024" height="1024" fill="url(#bg)"/>
  <path d="M 256 1024 Q 256 750 512 720 Q 768 750 768 1024 Z" fill="url(#shirt)"/>
  <path d="M 440 720 Q 512 760 584 720 L 560 780 Q 512 800 464 780 Z" fill="#1a202c"/>
  <path d="M 460 660 L 460 740 Q 512 770 564 740 L 564 660 Z" fill="#b8835a"/>
  <path d="M 460 660 L 460 740 Q 512 770 564 740 L 564 660 Z" fill="rgba(0,0,0,0.15)"/>
  <ellipse cx="350" cy="470" rx="24" ry="38" fill="url(#skin)" filter="url(#soft)"/>
  <ellipse cx="350" cy="475" rx="12" ry="22" fill="#a67c52" opacity="0.5"/>
  <ellipse cx="674" cy="470" rx="24" ry="38" fill="url(#skin)" filter="url(#soft)"/>
  <ellipse cx="674" cy="475" rx="12" ry="22" fill="#a67c52" opacity="0.5"/>
  <ellipse cx="512" cy="460" rx="165" ry="200" fill="url(#skin)" filter="url(#soft)"/>
  <ellipse cx="512" cy="460" rx="165" ry="200" filter="url(#texture)" opacity="0.5"/>
  <path d="M 350 380 Q 340 280 420 240 Q 480 210 512 215 Q 544 210 604 240 Q 684 280 674 380 Q 670 350 640 330 Q 600 310 560 320 Q 530 325 512 330 Q 494 325 464 320 Q 424 310 384 330 Q 354 350 350 380 Z" fill="url(#hair)"/>
  <path d="M 380 350 Q 400 300 440 280" stroke="#4a3018" stroke-width="2" fill="none" opacity="0.4"/>
  <path d="M 460 320 Q 480 280 510 270" stroke="#4a3018" stroke-width="2" fill="none" opacity="0.4"/>
  <path d="M 540 270 Q 570 280 600 300" stroke="#4a3018" stroke-width="2" fill="none" opacity="0.4"/>
  <path d="M 420 410 Q 450 400 475 412" stroke="#2a1d0e" stroke-width="8" fill="none" stroke-linecap="round"/>
  <path d="M 549 412 Q 574 400 604 410" stroke="#2a1d0e" stroke-width="8" fill="none" stroke-linecap="round"/>
  <ellipse cx="448" cy="445" rx="22" ry="14" fill="#f5f5f0"/>
  <ellipse cx="576" cy="445" rx="22" ry="14" fill="#f5f5f0"/>
  <circle cx="452" cy="445" r="10" fill="#5a4a3a"/>
  <circle cx="572" cy="445" r="10" fill="#5a4a3a"/>
  <circle cx="452" cy="445" r="5" fill="#1a1a1a"/>
  <circle cx="572" cy="445" r="5" fill="#1a1a1a"/>
  <circle cx="456" cy="441" r="3" fill="white" opacity="0.9"/>
  <circle cx="576" cy="441" r="3" fill="white" opacity="0.9"/>
  <path d="M 426 440 Q 448 432 470 440" stroke="#8b6b4a" stroke-width="2.5" fill="none" stroke-linecap="round"/>
  <path d="M 554 440 Q 576 432 598 440" stroke="#8b6b4a" stroke-width="2.5" fill="none" stroke-linecap="round"/>
  <path d="M 430 456 Q 448 462 466 456" stroke="#a67c52" stroke-width="1.5" fill="none" opacity="0.4"/>
  <path d="M 558 456 Q 576 462 594 456" stroke="#a67c52" stroke-width="1.5" fill="none" opacity="0.4"/>
  <path d="M 512 450 Q 505 500 500 530 Q 505 540 515 540 Q 524 540 524 530 Q 519 500 512 450" stroke="#a67c52" stroke-width="2" fill="none" stroke-linecap="round"/>
  <ellipse cx="500" cy="532" rx="5" ry="3" fill="#8b6b4a" opacity="0.5"/>
  <ellipse cx="524" cy="532" rx="5" ry="3" fill="#8b6b4a" opacity="0.5"/>
  <ellipse cx="512" cy="535" rx="12" ry="5" fill="rgba(0,0,0,0.06)"/>
  <ellipse cx="410" cy="500" rx="25" ry="18" fill="rgba(180,120,100,0.12)"/>
  <ellipse cx="614" cy="500" rx="25" ry="18" fill="rgba(180,120,100,0.12)"/>
  <path d="M 475 580 Q 512 588 549 580" stroke="#9a5050" stroke-width="4" fill="none" stroke-linecap="round"/>
  <path d="M 480 585 Q 512 595 544 585" stroke="#b06060" stroke-width="2" fill="none" opacity="0.5"/>
  <path d="M 475 578 Q 490 572 512 574 Q 534 572 549 578" stroke="#9a5050" stroke-width="2" fill="none" opacity="0.6"/>
  <ellipse cx="512" cy="620" rx="30" ry="8" fill="rgba(0,0,0,0.05)"/>
  <ellipse cx="512" cy="370" rx="50" ry="15" fill="rgba(255,230,200,0.06)"/>
  <ellipse cx="512" cy="565" rx="60" ry="25" fill="rgba(58,40,20,0.06)"/>
</svg>